<svg version="1.2" xmlns="http://www.w3.org/2000/svg" viewBox="0 0 50 47" width="50" height="47">
	<title>Shape 20 copy 2</title>
	<style>
		.s0 { fill: #f9fbfd } 
	</style>
	<path id="Shape 20" class="s0" d="m0.3 5c0-2.7 2.2-4.9 4.8-4.9h39.1c2.7 0 4.8 2.2 4.8 4.9 0 2.7-2.1 4.8-4.8 4.8h-39.1c-2.6 0-4.8-2.1-4.8-4.8z"/>
	<path id="Shape 20 copy" class="s0" d="m0.3 23.5c0-2.7 2.2-4.9 4.8-4.9h39.1c2.7 0 4.8 2.2 4.8 4.9 0 2.7-2.1 4.9-4.8 4.9h-39.1c-2.6 0-4.8-2.2-4.8-4.9z"/>
	<path id="Shape 20 copy 2" class="s0" d="m0.3 42c0-2.7 2.2-4.8 4.8-4.8h39.1c2.7 0 4.8 2.1 4.8 4.8 0 2.7-2.1 4.9-4.8 4.9h-39.1c-2.6 0-4.8-2.2-4.8-4.9z"/>
</svg>